<svg id="SvgjsSvg1013" width="288" height="288" xmlns="http://www.w3.org/2000/svg" version="1.1" xmlns:xlink="http://www.w3.org/1999/xlink" xmlns:svgjs="http://svgjs.com/svgjs"><rect id="SvgjsRect1019" width="288" height="288" rx="20" ry="20" transform="matrix(0.01,0,0,0.01,142.56,142.56)" fill="#87ddfd"></rect><defs id="SvgjsDefs1014"></defs><g id="SvgjsG1015" transform="matrix(0.48999999999999994,0,0,0.48999999999999994,73.54354511260988,74.13671894073487)"><svg xmlns="http://www.w3.org/2000/svg" viewBox="0 0 512 512" width="288" height="288"><path d="M324.847 551.215C317.669 551.206 310.275 551.443 303.12 550.851C178.718 540.568 85.5603 432.387 93.3522 309.062C100.776 191.566 197.262 96.2359 316.436 94.8171L330.577 94.8289C337.642 94.8936 344.481 95.8798 351.475 96.8514L371.779 100.49C460.885 120.99 528.555 193.22 544.434 283.125C568.111 417.182 471.263 540.846 336.784 550.901L324.847 551.215ZM310.176 110.346C198.792 115.436 108.743 209.477 108.702 320.799L108.827 336.25C109.251 345.317 110.684 354.922 112.541 363.773C120.984 404.029 137.795 436.988 164.591 467.797L209.903 422.102C193.693 413.451 191.582 403.858 191.586 387.609L191.563 367.893L191.587 273.11C191.651 255.604 192.134 233.711 214.707 232.603C231.945 231.757 231.646 229.003 237.695 215.922C240.599 209.642 250.058 194.671 254.453 191.007C263.308 183.627 280.853 182.201 291.719 180.911C311.725 178.534 364.554 177.369 379.862 193.118C383.631 196.996 385.657 202.413 388.138 207.135C391.916 214.327 396.158 221.06 401.867 226.882L463.433 165.128C417.086 127.111 372.083 108.391 310.176 110.346ZM474.462 176.595L419.667 232.124C448.903 235.2 447.257 248.916 448.419 272.819C448.524 274.981 448.87 277.12 448.933 279.288L449.685 333.788L448.997 379.547C448.965 393.068 450.476 407.692 438.449 417.081C428.819 424.6 417.997 423.853 406.445 423.859L261.296 423.869C250.863 423.866 240.172 424.343 229.771 423.541L229.629 423.813C228.377 426.071 226.23 427.974 224.405 429.778L175.394 478.961C190.817 492.458 207.118 504.209 225.451 513.436C256.117 528.256 287.548 535.935 321.47 535.925C439.968 535.889 532.706 438.737 532.477 320.879C532.384 272.822 515.476 226.621 485.634 188.934C482.247 184.657 478.658 180.11 474.462 176.595ZM308.094 195.379C296.812 195.57 277.073 197.414 266.136 201.242C257.611 211.341 252.812 225.043 245.202 233.04L352.686 232.113C356.046 232.111 360.004 231.725 363.281 232.434L363.701 232.52C371.256 234.375 370.296 246.941 360.742 247.433L223.511 247.482C211.99 247.494 208.458 247.335 207.387 259.197C206.946 264.076 206.921 268.843 206.9 273.737L206.861 386.159C206.927 389.625 206.45 394.223 207.501 397.525L207.801 398.486C209.538 404.17 215.508 408.2 221.091 409.677C223.906 407.925 226.423 404.893 228.747 402.528L273.421 357.649C271.46 353.9 269.489 350.113 268.136 346.094C254.054 304.261 292.751 262.487 334.852 276.055C339.72 277.624 344.311 279.877 348.796 282.311L392.356 239.052C384.071 231.94 379.374 223.901 374.562 214.339C367.354 200.013 363.403 199.633 347.698 197.237C334.013 195.149 322.134 194.591 308.094 195.379ZM408.331 246.222C401.127 251.914 394.724 259.146 388.261 265.679L360.398 292.648C391.523 330.769 361.796 387.919 313.222 382.327C302.133 381.05 293.278 375.426 284.271 369.328C280.099 373.495 245.784 406.594 245.156 408.333L246.406 408.554L413.667 408.624C424.636 408.634 433.079 404.993 433.379 393.164L433.515 355C433.589 352.156 434.108 349.324 434.187 346.465L434.244 309.441C434.204 306.655 433.648 303.967 433.559 301.2L433.382 277.996C433.326 275.833 432.929 273.702 432.858 271.545L432.748 260.798C432.706 258.436 432.975 255.215 431.485 253.237L431.209 252.853C426.869 246.91 415.246 246.123 408.331 246.222ZM316.071 289.499C288.699 292.355 271.484 321.606 285.361 346.56L294.455 337.403L338.459 293.803C331.582 291.187 323.555 288.319 316.071 289.499ZM349.867 305.302L295.812 357.581C298.97 360.474 302.164 362.366 306.083 364.071C325.357 371.641 347.296 362.211 354.92 342.867L356.172 339.157C359.453 329.2 357.094 313.484 349.867 305.302Z" transform="scale(.8)" fill="#000000" class="svgShape color000000-0 selectable"></path><path d="M415.99 284.13C401.733 286.134 396.54 266.914 411.269 263.492C426.682 262.313 429.45 279.614 415.99 284.13Z" transform="scale(.8)" fill="#000000" class="svgShape color000000-1 selectable"></path></svg></g></svg>